<svg xmlns="http://www.w3.org/2000/svg" viewBox="0 0 640 500">
  <defs>
    <linearGradient id="leather" x1="0" x2="1" y1="0" y2="1">
      <stop offset="0" stop-color="#7a4428"/>
      <stop offset="0.55" stop-color="#3b1d13"/>
      <stop offset="1" stop-color="#1b0d09"/>
    </linearGradient>
    <filter id="shadow" x="-20%" y="-20%" width="140%" height="140%">
      <feDropShadow dx="0" dy="18" stdDeviation="18" flood-color="#000" flood-opacity=".45"/>
    </filter>
  </defs>
  <g filter="url(#shadow)">
    <path d="M165 165c10-82 72-126 154-126 93 0 152 51 161 128l11 123H154l11-125z" fill="url(#leather)"/>
    <path d="M135 232c-60 9-88 50-83 105 4 47 35 78 78 78h51l12-183h-58z" fill="#4a2417"/>
    <path d="M505 232c60 9 88 50 83 105-4 47-35 78-78 78h-51l-12-183h58z" fill="#4a2417"/>
    <path d="M182 248h276c33 0 60 27 60 60v50c0 35-28 63-63 63H185c-35 0-63-28-63-63v-50c0-33 27-60 60-60z" fill="#5a2d1d"/>
    <path d="M202 270h236c27 0 49 22 49 49v10c0 19-15 34-34 34H187c-19 0-34-15-34-34v-10c0-27 22-49 49-49z" fill="#7a4428" opacity=".7"/>
    <path d="M204 421h62l-26 55h-58zM374 421h62l22 55h-58z" fill="#26110b"/>
    <path d="M210 154c38-58 178-64 221 3" fill="none" stroke="#98613e" stroke-width="18" stroke-linecap="round" opacity=".55"/>
    <path d="M178 243c50 35 231 38 287 1" fill="none" stroke="#2a130c" stroke-width="10" opacity=".45"/>
  </g>
</svg>
